<?xml version="1.0" encoding="UTF-8"?>
<svg width="175px" height="32px" viewBox="0 0 175 32" version="1.1" xmlns="http://www.w3.org/2000/svg" xmlns:xlink="http://www.w3.org/1999/xlink">
    <!-- Generator: Sketch 54.1 (76490) - https://sketchapp.com -->
    <title>Halodoc_Logo_svg</title>
    <desc>Created with Sketch.</desc>
    <defs>
        <polygon id="path-1" points="16.5631754 0.0855496706 16.5631754 19.1877304 0.0478449709 19.1877304 0.0478449709 0.0855496706 16.5631754 0.0855496706"></polygon>
        <polygon id="path-3" points="17.0984383 31.4337314 0 31.4337314 0 0.0182680029 34.1968766 0.0182680029 34.1968766 31.4337314 17.0984383 31.4337314"></polygon>
    </defs>
    <g id="Halodoc_Logo_svg" stroke="none" stroke-width="1" fill="none" fill-rule="evenodd">
        <g id="Page-1" transform="translate(0.000000, 0.000000)">
            <path d="M47.9751372,28.0660423 L47.9751372,3.13582024 L50.6389776,3.13582024 L50.6389776,13.078411 C51.6078055,11.0777466 53.5886658,9.75380297 56.2158479,9.75380297 C60.2107357,9.75380297 62.7288155,12.4350924 62.7288155,16.5483404 L62.7288155,28.0660423 L60.0654115,28.0660423 L60.0654115,17.1222518 C60.0654115,14.1138806 58.3389776,12.2173271 55.5677805,12.2173271 C52.6879177,12.2173271 50.6389776,14.2947733 50.6389776,17.3005417 L50.6389776,28.0660423 L47.9751372,28.0660423 Z" id="Fill-1" fill="#E0004D"></path>
            <path d="M72.7652182,26.1347418 C76.3258791,26.1347418 78.3067394,24.524927 78.3067394,21.9854887 L78.3067394,18.7645578 C77.8031234,19.3020303 76.2189589,19.6594777 73.5904676,19.8720375 C70.2803055,20.1618128 68.5896571,20.9465487 68.5896571,23.1281058 C68.5896571,25.0255269 70.1733853,26.1347418 72.7652182,26.1347418 M73.483111,17.3703394 C75.3553055,17.2245841 76.6130362,17.0141933 77.2990711,16.6892806 C77.9798691,16.368272 78.3067394,15.7262548 78.3067394,14.722886 C78.3067394,13.2566575 77.0459539,11.9700203 74.4187718,11.9700203 C72.4392207,11.9700203 70.8205798,12.8289352 69.5248815,14.5111938 L67.6902182,13.0067914 C69.3092955,10.6820818 71.538909,9.49998928 74.4187718,9.49998928 C78.3416521,9.49998928 80.9688342,11.6819802 80.9688342,15.1189412 L80.9688342,24.7383543 C80.9688342,26.0978692 81.6884726,26.1347418 82.4788092,26.1347418 L82.8030611,26.1347418 L82.8030611,28.0299939 C82.4063653,28.2798601 81.7975748,28.4238801 80.9688342,28.4238801 C80.0676496,28.4238801 79.4571135,28.1011363 79.0617269,27.4569502 C78.8810536,27.1381105 78.7387843,26.7403202 78.6667768,26.3121641 C77.3693329,27.8534392 75.3199564,28.6017362 72.4771883,28.6017362 C68.5896571,28.6017362 65.9249439,26.4587869 65.9249439,23.2005496 C65.9249439,19.5171928 68.4430237,17.763358 73.483111,17.3703394" id="Fill-3" fill="#E0004D"></path>
            <path d="M86.1157544,3.13573348 L88.7778491,3.13573348 L88.7778491,23.3458277 C88.7778491,25.3477935 89.3512905,26.1346984 91.0441209,26.1346984 C91.5477369,26.1346984 91.9784726,26.0978258 92.3380736,25.9902445 L92.3380736,28.4611432 C91.9435599,28.567423 91.5128242,28.6021267 91.0441209,28.6021267 C89.8553429,28.6021267 88.9908167,28.4238367 87.8762282,27.816957 C86.7616397,27.2074744 86.1157544,25.7065423 86.1157544,23.525419 L86.1157544,3.13573348 Z" id="Fill-5" fill="#E0004D"></path>
            <path d="M95.6873379,19.0533354 C95.6873379,21.0900048 96.3332232,22.7744324 97.6660162,24.130043 C98.9966272,25.453119 100.652799,26.1346116 102.666827,26.1346116 C104.6826,26.1346116 106.338772,25.453119 107.669383,24.130043 C109.002176,22.773131 109.648498,21.0900048 109.648498,19.0533354 C109.648498,17.0140632 109.002176,15.3322384 107.669383,14.0074272 C106.338772,12.650949 104.6826,11.9698902 102.666827,11.9698902 C100.652799,11.9698902 98.9966272,12.650949 97.6660162,14.0074272 C96.3332232,15.3322384 95.6873379,17.0140632 95.6873379,19.0533354 M93.0221883,19.0533354 C93.0221883,16.3334382 93.9591584,14.0829076 95.8300436,12.256629 C97.7009289,10.4316517 99.9680736,9.49985914 102.666827,9.49985914 C105.366016,9.49985914 107.632724,10.4316517 109.507101,12.256629 C111.376677,14.0829076 112.312774,16.3334382 112.312774,19.0533354 C112.312774,21.7714974 111.376677,24.060202 109.507101,25.8847455 C107.632724,27.7084214 105.366016,28.6020399 102.666827,28.6020399 C99.9680736,28.6020399 97.7009289,27.7084214 95.8300436,25.8847455 C93.9591584,24.060202 93.0221883,21.7714974 93.0221883,19.0533354" id="Fill-7" fill="#E0004D"></path>
            <path d="M129.038541,24.1301298 C130.336858,22.7732178 130.983616,21.0900916 130.983616,19.0534222 C130.983616,17.0141499 130.336858,15.3323252 129.038541,14.007514 C127.778628,12.6510357 126.157805,11.969977 124.21884,11.969977 C122.347082,11.969977 120.79783,12.6510357 119.538791,14.007514 C118.317282,15.3323252 117.704127,17.0141499 117.704127,19.0534222 C117.704127,21.0900916 118.317282,22.7732178 119.538791,24.1301298 C120.79783,25.4532058 122.347082,26.1346984 124.21884,26.1346984 C126.157805,26.1346984 127.778628,25.4532058 129.038541,24.1301298 M130.6598,12.720443 L130.6598,3.13573348 L133.321022,3.13573348 L133.321022,28.0659555 L130.6598,28.0659555 L130.6598,25.3846661 C129.614601,27.2074744 127.491908,28.6021267 124.21884,28.6021267 C121.664539,28.6021267 119.466783,27.7085081 117.704127,25.8848322 C115.941035,24.059855 115.042469,21.7715842 115.042469,19.0534222 C115.042469,16.333525 115.941035,14.0825606 117.704127,12.2567157 C119.466783,10.4317384 121.664539,9.4999459 124.21884,9.4999459 C127.491908,9.4999459 129.614601,10.8980685 130.6598,12.720443" id="Fill-9" fill="#E0004D"></path>
            <path d="M139.178242,19.0533354 C139.178242,21.0900048 139.823691,22.773131 141.15692,24.130043 C142.487968,25.453119 144.141958,26.1346116 146.159476,26.1346116 C148.173504,26.1346116 149.829676,25.453119 151.160287,24.130043 C152.490898,22.773131 153.139401,21.0900048 153.139401,19.0533354 C153.139401,17.0140632 152.490898,15.3322384 151.160287,14.0074272 C149.829676,12.650949 148.173504,11.9698902 146.159476,11.9698902 C144.141958,11.9698902 142.487968,12.650949 141.15692,14.0074272 C139.823691,15.3322384 139.178242,17.0140632 139.178242,19.0533354 M136.513092,19.0533354 C136.513092,16.3334382 137.450062,14.0829076 139.320948,12.256629 C141.191833,10.4316517 143.460723,9.49985914 146.159476,9.49985914 C148.858666,9.49985914 151.123192,10.4316517 152.995387,12.256629 C154.867145,14.0829076 155.801496,16.3334382 155.801496,19.0533354 C155.801496,21.7714974 154.867145,24.060202 152.995387,25.8847455 C151.123192,27.7084214 148.858666,28.6020399 146.159476,28.6020399 C143.460723,28.6020399 141.191833,27.7084214 139.320948,25.8847455 C137.450062,24.060202 136.513092,21.7714974 136.513092,19.0533354" id="Fill-11" fill="#E0004D"></path>
            <g id="Group-15" transform="translate(158.213383, 9.414179)">
                <mask id="mask-2" fill="white">
                    <use xlink:href="#path-1"></use>
                </mask>
                <g id="Clip-14"></g>
                <path d="M16.5633063,2.8032779 L14.9451018,4.66859815 C13.5773961,3.27134314 11.8147402,2.55601452 9.69161056,2.55601452 C7.6762739,2.55601452 6.02184746,3.23663951 4.69123649,4.59311775 C3.35713425,5.91792892 2.70993973,7.60018751 2.70993973,9.63902593 C2.70993973,11.6756954 3.35713425,13.3588215 4.69123649,14.7157336 C6.02184746,16.0388096 7.6762739,16.7207359 9.69161056,16.7207359 C11.8147402,16.7207359 13.5773961,16.0028046 14.9451018,14.6094537 L16.5633063,16.470436 C14.8015233,18.2941119 12.4981567,19.1877304 9.69161056,19.1877304 C6.99285744,19.1877304 4.72833126,18.2941119 2.8539547,16.470436 C0.984378637,14.6458925 0.0478449709,12.3571879 0.0478449709,9.63902593 C0.0478449709,6.91912872 0.984378637,4.66859815 2.8539547,2.84231948 C4.72833126,1.017776 6.99285744,0.0855496706 9.69161056,0.0855496706 C12.4981567,0.0855496706 14.8015233,0.982204777 16.5633063,2.8032779" id="Fill-13" fill="#E0004D" mask="url(#mask-2)"></path>
            </g>
            <g id="Group-18" transform="translate(0.000000, 0.304476)">
                <mask id="mask-4" fill="white">
                    <use xlink:href="#path-3"></use>
                </mask>
                <g id="Clip-17"></g>
                <path d="M31.5352182,19.8687458 C31.5352182,25.2768732 27.1183229,29.053496 20.7921384,29.053496 C14.2983728,29.053496 9.58777431,25.1931507 9.58777431,19.8687458 L9.58777431,13.0867884 C11.3988716,12.7900724 12.6033603,12.1302696 13.9138965,10.8167371 C15.5556671,9.16831453 16.5528616,6.79285088 16.534096,4.46640611 L16.534096,0.0182680029 L10.7935723,0.0182680029 L10.7935723,2.39026129 L14.143884,2.39026129 L14.143884,4.46640611 C14.143884,7.97581095 11.6288591,10.8271482 8.09874688,10.8271482 C4.56688903,10.8271482 2.3490586,7.97581095 2.3490586,4.46640611 L2.3490586,2.39026129 L5.74082918,2.39026129 L5.74082918,0.0182680029 L-0.000130922693,0.0182680029 L-0.000130922693,4.46640611 C-0.000130922693,8.95445339 2.58777431,12.5506173 6.9230611,13.1223597 L6.9230611,19.8687458 C6.9230611,26.4611346 12.885717,31.4306948 20.7921384,31.4337314 C28.5606546,31.4337314 34.1968766,26.5695835 34.1968766,19.8687458 L34.1968766,13.0867884 L31.5352182,13.0867884 L31.5352182,19.8687458 Z" id="Fill-16" fill="#E0004D" mask="url(#mask-4)"></path>
            </g>
            <path d="M32.9522818,7.94370488 C31.4082668,7.94370488 30.1527182,6.6952417 30.1527182,5.1648115 C30.1527182,3.62960955 31.4082668,2.38027878 32.9522818,2.38027878 C34.4928055,2.38027878 35.7496633,3.61486051 35.7496633,5.13227684 C35.7496633,6.68266163 34.4928055,7.94370488 32.9522818,7.94370488 M32.9522818,4.33795408e-05 C30.1038404,4.33795408e-05 27.7869451,2.30436458 27.7869451,5.13487962 C27.7869451,7.98274646 30.1038404,10.297045 32.9522818,10.297045 C35.7981047,10.297045 38.1176185,7.98274646 38.1176185,5.13487962 C38.1176185,2.30436458 35.7981047,4.33795408e-05 32.9522818,4.33795408e-05" id="Fill-19" fill="#E0004D"></path>
        </g>
    </g>
</svg>